<?xml version="1.0" standalone="no"?>
<!DOCTYPE svg PUBLIC "-//W3C//DTD SVG 20010904//EN"
 "http://www.w3.org/TR/2001/REC-SVG-20010904/DTD/svg10.dtd">
<svg version="1.0" xmlns="http://www.w3.org/2000/svg"
 width="1080.000000pt" height="1080.000000pt" viewBox="0 0 1080.000000 1080.000000"
 preserveAspectRatio="xMidYMid meet">

<g transform="translate(0.000000,1080.000000) scale(0.100000,-0.100000)"
fill="#311b92" stroke="none">
<path d="M5584 7403 c-12 -23 -33 -46 -56 -58 -21 -11 -38 -22 -38 -25 0 -4
16 -12 36 -19 27 -10 40 -23 53 -52 9 -21 18 -39 21 -39 3 0 14 17 25 37 13
24 34 45 59 56 l39 19 -42 19 c-31 14 -46 29 -60 60 l-19 41 -18 -39z"/>
<path d="M6100 7250 c-38 -94 -66 -122 -169 -164 -39 -15 -69 -32 -66 -36 3
-5 37 -21 75 -36 91 -36 128 -73 165 -168 16 -42 32 -76 35 -76 3 0 20 36 38
80 42 99 70 127 166 165 42 17 76 33 76 36 0 4 -35 21 -77 39 -94 39 -128 74
-167 169 -15 39 -32 71 -36 71 -4 0 -22 -36 -40 -80z"/>
<path d="M5050 7261 c-321 -69 -560 -293 -656 -618 -21 -73 -26 -110 -27 -213
0 -70 5 -151 12 -185 76 -346 337 -612 669 -680 90 -19 268 -21 350 -5 63 13
175 51 225 76 116 60 280 205 331 294 l19 33 -29 -7 c-64 -17 -258 -18 -330
-3 -158 34 -292 104 -407 216 -171 165 -254 374 -244 611 8 173 59 322 151
443 20 26 36 49 36 52 0 7 -2 6 -100 -14z"/>
<path d="M4240 4785 l0 -417 198 3 c198 4 199 4 257 34 82 42 118 94 123 179
4 53 0 71 -18 104 -22 40 -98 92 -134 92 -28 0 -17 19 23 40 61 31 94 81 99
150 6 76 -11 122 -58 163 -61 52 -96 59 -302 64 l-188 5 0 -417z m387 310 c62
-37 83 -137 43 -203 -34 -55 -90 -73 -217 -70 l-108 3 -3 134 c-1 74 0 141 3
149 9 23 240 13 282 -13z m10 -365 c110 -49 112 -203 3 -258 -41 -20 -57 -22
-170 -20 l-125 3 -3 134 c-1 74 0 141 2 148 4 10 36 13 128 13 100 0 131 -4
165 -20z"/>
<path d="M5083 4945 c-47 -14 -133 -62 -133 -73 2 -32 60 -56 76 -31 13 21 89
49 136 49 39 0 54 -6 80 -29 29 -26 33 -35 36 -99 l4 -69 -78 -8 c-196 -18
-293 -85 -281 -192 6 -58 30 -91 85 -115 76 -34 176 -14 244 49 29 28 48 24
48 -11 0 -30 18 -46 53 -46 l29 0 -4 218 c-3 194 -6 222 -24 263 -43 93 -153
131 -271 94z m195 -382 c-3 -66 -4 -68 -44 -96 -44 -31 -112 -45 -159 -33 -67
17 -88 95 -39 141 15 14 30 25 33 25 3 1 29 7 56 15 28 7 74 14 103 14 l53 1
-3 -67z"/>
<path d="M5719 4954 c-15 -3 -51 -20 -80 -37 -45 -27 -59 -43 -88 -99 -31 -62
-34 -75 -34 -155 0 -137 39 -216 131 -270 41 -24 57 -28 127 -28 84 1 152 24
189 64 15 17 15 20 -2 41 l-18 23 -44 -29 c-37 -25 -53 -29 -111 -29 -80 0
-110 18 -149 86 -22 38 -25 56 -25 139 0 109 20 161 77 201 46 33 131 38 186
10 52 -26 68 -26 83 0 12 24 11 26 -54 60 -38 20 -136 32 -188 23z"/>
<path d="M6263 4951 c-17 -4 -52 -20 -78 -35 -173 -102 -164 -431 15 -523 138
-70 315 -19 383 111 30 58 36 204 12 276 -21 64 -76 127 -132 152 -48 21 -152
31 -200 19z m175 -87 c15 -11 38 -42 52 -69 35 -72 36 -199 0 -269 -33 -67
-66 -89 -138 -94 -126 -9 -192 68 -192 225 0 119 32 186 105 219 42 20 138 13
173 -12z"/>
</g>
</svg>
