<?xml version="1.0" standalone="no"?>
<!DOCTYPE svg PUBLIC "-//W3C//DTD SVG 20010904//EN"
 "http://www.w3.org/TR/2001/REC-SVG-20010904/DTD/svg10.dtd">
<svg version="1.0" xmlns="http://www.w3.org/2000/svg"
 width="204.000000pt" height="235.000000pt" viewBox="0 0 204.000000 235.000000"
 preserveAspectRatio="xMidYMid meet">

<g transform="translate(0.000000,235.000000) scale(0.100000,-0.100000)"
fill="#311b92" stroke="none">
<path d="M1164 2216 c-5 -11 -22 -27 -39 -35 l-29 -14 32 -15 c17 -9 34 -24
38 -34 7 -24 20 -23 27 2 3 11 20 27 39 35 18 8 27 14 19 15 -7 0 -28 15 -45
34 -31 33 -33 33 -42 12z"/>
<path d="M1515 2107 c-28 -57 -35 -64 -95 -93 l-65 -32 69 -32 c65 -31 70 -36
94 -91 14 -33 28 -59 31 -59 3 0 19 28 34 61 27 58 32 63 95 91 l67 31 -60 27
c-69 31 -85 47 -111 112 -10 27 -21 48 -24 47 -3 0 -18 -28 -35 -62z"/>
<path d="M782 2120 c-138 -36 -249 -109 -328 -213 -74 -99 -104 -172 -124
-300 -23 -151 40 -340 154 -464 118 -129 263 -195 431 -196 53 0 116 7 154 17
129 33 264 124 333 223 l30 45 -28 -5 c-81 -16 -127 -16 -204 -3 -210 37 -378
185 -441 388 -23 71 -27 214 -9 293 14 61 62 164 96 205 30 35 31 35 -64 10z"/>
<path d="M250 425 l0 -287 143 4 c139 3 145 4 180 31 52 39 70 79 65 139 -6
55 -25 81 -79 105 l-38 17 28 17 c45 27 71 67 71 111 0 103 -61 139 -247 146
l-123 5 0 -288z m255 211 c44 -19 61 -71 40 -122 -19 -46 -69 -66 -160 -62
l-70 3 -3 98 -3 97 81 0 c47 0 95 -6 115 -14z m36 -264 c32 -28 40 -71 24
-121 -12 -40 -76 -62 -168 -59 l-82 3 -3 103 -3 102 100 0 c96 0 102 -1 132
-28z"/>
<path d="M836 539 c-53 -13 -96 -40 -96 -61 0 -28 18 -31 54 -9 21 13 50 21
80 21 61 0 86 -24 86 -84 l0 -44 -62 -7 c-128 -14 -197 -67 -184 -139 16 -85
136 -111 219 -46 32 25 34 25 41 -5 4 -16 13 -25 26 -25 19 0 20 7 20 151 0
114 -4 159 -15 183 -26 55 -96 82 -169 65z m124 -268 c0 -45 -3 -51 -32 -69
-70 -43 -142 -36 -155 16 -14 58 44 100 140 101 l47 1 0 -49z"/>
<path d="M1264 541 c-113 -27 -171 -150 -133 -284 23 -85 104 -136 194 -123
48 8 105 40 105 60 0 25 -17 27 -55 5 -45 -27 -115 -22 -149 10 -27 25 -46 83
-46 137 0 49 32 119 60 134 31 17 117 14 145 -4 20 -13 25 -13 35 -1 18 22 -3
42 -63 60 -28 8 -53 15 -56 14 -3 -1 -20 -4 -37 -8z"/>
<path d="M1644 540 c-96 -22 -144 -92 -144 -206 0 -81 25 -135 78 -171 64 -43
166 -39 227 9 64 50 86 188 44 275 -33 69 -128 112 -205 93z m114 -66 c72 -50
67 -233 -7 -277 -37 -22 -95 -22 -132 0 -75 45 -79 227 -5 278 27 20 115 19
144 -1z"/>
</g>
</svg>
